<svg width="17" height="21" viewBox="0 0 17 21" fill="none" xmlns="http://www.w3.org/2000/svg">
<path fill-rule="evenodd" clip-rule="evenodd" d="M2.62568 0.299805H14.6653C15.1522 0.299805 15.5954 0.51293 15.9157 0.85543C16.2367 1.19855 16.4355 1.67168 16.4355 2.19293V18.8073C16.4355 19.3279 16.2361 19.8017 15.9157 20.1448C15.5954 20.4873 15.1522 20.7004 14.6653 20.7004H2.62568C2.1387 20.7004 1.69556 20.4873 1.37519 20.1448C1.05424 19.8017 0.855469 19.3286 0.855469 18.8073V2.19293C0.855469 1.6723 1.05482 1.19855 1.37519 0.85543C1.69556 0.51293 2.1387 0.299805 2.62568 0.299805ZM3.37691 5.62605C3.20211 5.4398 3.20211 5.13668 3.37691 4.95043C3.55171 4.76356 3.83467 4.76356 4.00947 4.95043L4.94018 5.94543L6.71624 4.0473C6.89045 3.86105 7.17399 3.86105 7.34821 4.0473C7.52301 4.23418 7.52301 4.53668 7.34821 4.72355L5.25645 6.9598C5.08165 7.14605 4.7987 7.14605 4.62448 6.9598L3.3775 5.62668L3.37691 5.62605ZM8.19707 16.3504C7.95036 16.3504 7.74984 16.1361 7.74984 15.8723C7.74984 15.6086 7.95036 15.3942 8.19707 15.3942H13.5977C13.8445 15.3942 14.045 15.6086 14.045 15.8723C14.045 16.1361 13.8445 16.3504 13.5977 16.3504H8.19707ZM3.37691 15.6186C3.20211 15.4323 3.20211 15.1292 3.37691 14.9429C3.55171 14.7561 3.83467 14.7561 4.00947 14.9429L4.94018 15.9386L6.71624 14.0398C6.89045 13.8536 7.17399 13.8536 7.34821 14.0398C7.52301 14.2267 7.52301 14.5292 7.34821 14.7161L5.25645 16.9523C5.08165 17.1386 4.7987 17.1386 4.62448 16.9523L3.3775 15.6192L3.37691 15.6186ZM8.19707 11.3542C7.95036 11.3542 7.74984 11.1398 7.74984 10.8761C7.74984 10.6123 7.95036 10.3979 8.19707 10.3979H13.5977C13.8445 10.3979 14.045 10.6123 14.045 10.8761C14.045 11.1404 13.8445 11.3542 13.5977 11.3542H8.19707ZM3.37691 10.6223C3.20211 10.4354 3.20211 10.1329 3.37691 9.94605C3.55171 9.7598 3.83467 9.7598 4.00947 9.94605L4.94018 10.9417L6.71624 9.04355C6.89045 8.85668 7.17399 8.85668 7.34821 9.04355C7.52301 9.2298 7.52301 9.53293 7.34821 9.71918L5.25645 11.9554C5.08165 12.1423 4.7987 12.1423 4.62448 11.9554L3.3775 10.6223H3.37691ZM8.19707 6.3573C7.95036 6.3573 7.74984 6.14293 7.74984 5.87918C7.74984 5.61543 7.95036 5.40105 8.19707 5.40105H13.5977C13.8445 5.40105 14.045 5.61543 14.045 5.87918C14.045 6.14293 13.8445 6.3573 13.5977 6.3573H8.19707Z" fill="#0051D2"/>
</svg>
