<svg width="22" height="15" viewBox="0 0 22 15" fill="none" xmlns="http://www.w3.org/2000/svg">
<path d="M9.93623 12.4633C9.69287 12.3252 9.38639 12.4179 9.26519 12.6583L8.60111 13.9198C8.47799 14.1621 8.58431 14.4672 8.82551 14.6118C9.06911 14.7622 9.37943 14.6787 9.50351 14.4317L10.1736 13.1554C10.295 12.9108 10.1839 12.6024 9.93623 12.4633Z" fill="#0051D2"/>
<path d="M8.34006 11.4692C8.06646 11.3168 7.72014 11.4198 7.5867 11.6903L6.87774 13.0583C6.7407 13.3305 6.86094 13.6707 7.13238 13.8348C7.40478 14.0038 7.75422 13.9079 7.89246 13.6319L8.60238 12.2474C8.74182 11.972 8.61534 11.6285 8.34006 11.4692Z" fill="#0051D2"/>
<path d="M6.52497 10.5809C6.23337 10.4275 5.87481 10.5448 5.73969 10.8309L5.03409 12.2824C4.89465 12.57 5.03097 12.9228 5.31849 13.0844C5.61105 13.2524 5.97633 13.1417 6.11361 12.8516L6.82377 11.3846C6.96057 11.0948 6.82041 10.7368 6.52497 10.5809Z" fill="#0051D2"/>
<path d="M1.51875 9.69189L1.23603 9.93377C0.99267 10.1475 0.98163 10.5351 1.19019 10.8061C1.39635 11.088 1.78107 11.1352 2.02539 10.9185L2.59611 10.4296L1.51875 9.69189Z" fill="#0051D2"/>
<path d="M7.5287 1.98301C7.5287 1.98301 8.4059 1.26851 9.24014 0.3665C9.24014 0.3665 9.52742 0.0932525 9.99518 0.0519937C10.4649 0.00875837 12.3201 -0.0964886 13.7289 0.596511C13.7289 0.596511 14.2168 0.828499 14.9109 1.28926C14.9109 1.28926 16.3789 2.04601 17.1743 1.87801L19.8457 1.16351L21.8032 7.08428L19.581 8.21852C19.581 8.21852 19.4977 7.90426 19.0302 7.54702L14.0147 3.74701C14.0147 3.74701 11.7899 2.08825 10.5251 2.1305C10.5251 2.1305 10.0974 2.04477 9.7307 2.46551C9.36326 2.88625 7.89494 4.46051 6.6311 3.99629C6.6311 3.99629 7.58846 3.76652 8.30246 2.80151C8.30246 2.80151 8.44694 2.52851 7.5287 1.98301Z" fill="#0051D2"/>
<path d="M5.7749 3.4106L7.12106 2.31885C7.12106 2.31885 7.46738 2.46535 7.67066 2.71785C7.67066 2.71785 6.75266 3.82937 5.7749 3.4106Z" fill="#0051D2"/>
<path d="M0.196533 8.27137L1.29813 1.81646C1.29813 1.81646 2.96085 2.55048 3.97821 2.00497C3.97821 2.00497 5.81493 0.786229 6.73317 0.828723L7.71189 0.954476C7.71189 0.954476 7.24317 1.47923 6.61005 1.85748C5.97813 2.23473 5.24493 2.94923 4.93845 3.26373C4.93845 3.26373 4.65213 3.57923 4.91661 3.87199C5.18277 4.16575 6.12141 4.96375 7.05861 4.94299C7.99701 4.92249 9.23997 4.33498 10.3017 3.03175C10.3017 3.03175 10.4861 2.88648 11.1389 3.09573C11.79 3.30499 12.6269 3.70622 13.2991 4.27198C13.782 4.67815 17.9693 7.77626 18.6024 8.34499C19.2336 8.91101 18.8469 9.45824 18.8469 9.45824C18.8469 9.45824 18.4994 10.1285 17.7866 9.66676C17.0721 9.20575 13.5041 6.83201 13.5041 6.83201C13.5041 6.83201 13.0973 6.55876 12.8717 6.89501C12.8717 6.89501 12.5455 7.27449 12.9739 7.56725L16.9507 10.2335C16.9507 10.2335 17.4605 10.6118 17.052 11.158C16.6447 11.7047 16.3188 11.557 16.1745 11.4718C16.0334 11.3893 11.9947 8.7015 11.9947 8.7015C11.9947 8.7015 11.6491 8.491 11.4449 8.8275C11.2394 9.1635 11.5058 9.478 11.5058 9.478L14.8709 11.7052C14.8709 11.7052 15.3192 12.1238 15.0117 12.564C14.7074 13.0053 14.4631 13.0465 14.1367 12.8168C13.8098 12.5848 10.1184 10.171 10.1184 10.171C10.1184 10.171 9.77181 9.8985 9.54645 10.2772C9.54645 10.2772 9.23997 10.591 9.68877 10.9485C10.1373 11.3043 12.2997 12.7345 12.2997 12.7345C12.2997 12.7345 12.7896 12.9853 12.4644 13.5315C12.1368 14.077 11.7293 13.8665 11.6071 13.825C11.4837 13.7825 10.7719 13.4675 10.7719 13.4675C10.7719 13.4675 11.4441 12.5025 10.4253 11.8097C10.4253 11.8097 9.97581 11.451 9.38493 11.683C9.38493 11.683 9.30285 11.1797 8.67069 10.8017C8.67069 10.8017 8.13981 10.5065 7.52805 10.8017C7.52805 10.8017 7.50789 10.1932 6.71349 9.83575C6.71349 9.83575 5.83629 9.50073 5.24541 10.2572L4.77357 11.2415L0.196533 8.27137Z" fill="#0051D2"/>
</svg>
