<svg width="20" height="18" viewBox="0 0 20 18" fill="none" xmlns="http://www.w3.org/2000/svg">
<path d="M6.50012 3.5C6.50012 3.04037 6.59065 2.58525 6.76654 2.16061C6.94243 1.73597 7.20024 1.35013 7.52525 1.02513C7.85025 0.700121 8.23609 0.442313 8.66073 0.266422C9.08537 0.0905301 9.54049 0 10.0001 0C10.4597 0 10.9149 0.0905301 11.3395 0.266422C11.7642 0.442313 12.15 0.700121 12.475 1.02513C12.8 1.35013 13.0578 1.73597 13.2337 2.16061C13.4096 2.58525 13.5001 3.04037 13.5001 3.5C13.5001 4.42826 13.1314 5.3185 12.475 5.97487C11.8186 6.63125 10.9284 7 10.0001 7C9.07186 7 8.18162 6.63125 7.52525 5.97487C6.86887 5.3185 6.50012 4.42826 6.50012 3.5ZM2.50012 8C3.16316 8 3.79905 7.73661 4.26789 7.26777C4.73673 6.79893 5.00012 6.16304 5.00012 5.5C5.00012 4.83696 4.73673 4.20107 4.26789 3.73223C3.79905 3.26339 3.16316 3 2.50012 3C1.83708 3 1.20119 3.26339 0.732352 3.73223C0.263512 4.20107 0.000119468 4.83696 0.000119468 5.5C0.000119468 6.16304 0.263512 6.79893 0.732352 7.26777C1.20119 7.73661 1.83708 8 2.50012 8ZM20.0001 5.5C20.0001 6.16304 19.7367 6.79893 19.2679 7.26777C18.799 7.73661 18.1632 8 17.5001 8C16.8371 8 16.2012 7.73661 15.7324 7.26777C15.2635 6.79893 15.0001 6.16304 15.0001 5.5C15.0001 4.83696 15.2635 4.20107 15.7324 3.73223C16.2012 3.26339 16.8371 3 17.5001 3C18.1632 3 18.799 3.26339 19.2679 3.73223C19.7367 4.20107 20.0001 4.83696 20.0001 5.5ZM8.50012 9C7.12012 9 6.00012 10.12 6.00012 11.5V14C6.00012 15.0609 6.42155 16.0783 7.17169 16.8284C7.92184 17.5786 8.93925 18 10.0001 18C11.061 18 12.0784 17.5786 12.8285 16.8284C13.5787 16.0783 14.0001 15.0609 14.0001 14V11.5C14.0001 10.12 12.8801 9 11.5001 9H8.50012ZM4.00012 11.5C4.00012 10.922 4.10812 10.37 4.30812 9.864L1.84612 10.524C1.20604 10.6956 0.660273 11.1143 0.328752 11.6881C-0.0027695 12.2618 -0.0929173 12.9438 0.0781195 13.584L0.46612 15.034C0.602113 15.5415 0.836742 16.0172 1.15661 16.4339C1.47647 16.8507 1.8753 17.2004 2.33032 17.463C2.78535 17.7256 3.28764 17.896 3.80853 17.9645C4.32942 18.0329 4.85869 17.9981 5.36612 17.862L5.40012 17.852C4.49578 16.7721 4.00018 15.4085 4.00012 14V11.5ZM16.0001 14C16.0001 15.466 15.4741 16.81 14.6001 17.854L14.6321 17.862C15.6566 18.1363 16.7482 17.9925 17.6667 17.4621C18.5852 16.9318 19.2554 16.0584 19.5301 15.034L19.9181 13.584C20.0892 12.9438 19.999 12.2618 19.6675 11.6881C19.336 11.1143 18.7902 10.6956 18.1501 10.524L15.6941 9.864C15.8921 10.372 16.0001 10.924 16.0001 11.5V14Z" fill="#0051D2"/>
</svg>
