<svg width="18" height="21" viewBox="0 0 18 21" fill="none" xmlns="http://www.w3.org/2000/svg">
<path fill-rule="evenodd" clip-rule="evenodd" d="M17.0053 6.76167C17.1195 7.00274 17.1818 7.27129 17.1818 7.54603V18.7674C17.1818 19.2371 17.0028 19.6882 16.6823 20.0206C16.3627 20.3538 15.9289 20.54 15.4772 20.54H2.52266C2.07096 20.54 1.63715 20.3538 1.31756 20.0206C0.99709 19.6882 0.818115 19.2371 0.818115 18.7674V2.4596C0.818115 1.98986 0.997092 1.53874 1.31756 1.20639C1.63715 0.87313 2.07096 0.687012 2.52266 0.687012H9.97488C10.1931 0.687012 10.4078 0.731326 10.6073 0.813751C10.6175 0.817296 10.6269 0.821727 10.6362 0.826159C10.8075 0.900606 10.9661 1.0043 11.1076 1.13459L16.6099 6.22103C16.7701 6.36904 16.8996 6.54542 16.996 6.74041C16.9994 6.7475 17.0028 6.75458 17.0053 6.76167ZM9.68184 2.10519H2.52286C2.43252 2.10519 2.34559 2.14242 2.28166 2.20889C2.21773 2.27536 2.18194 2.36576 2.18194 2.45972V18.7675C2.18194 18.8614 2.21774 18.9518 2.28166 19.0183C2.34558 19.0848 2.43251 19.122 2.52286 19.122H15.4774C15.5677 19.122 15.6538 19.0848 15.7186 19.0183C15.7825 18.9518 15.8183 18.8614 15.8183 18.7675V7.77735H11.3866C10.9341 7.77735 10.5011 7.59123 10.1807 7.25798C9.86191 6.92563 9.68207 6.4745 9.68207 6.00477L9.68184 2.10519ZM14.7068 6.35939L11.0455 2.97555V6.00499C11.0455 6.09894 11.0813 6.18934 11.1452 6.25582C11.2091 6.3223 11.296 6.35951 11.3864 6.35951L14.7068 6.35939ZM4.2273 13.4497C3.85058 13.4497 3.54548 13.1324 3.54548 12.7407C3.54548 12.3489 3.85058 12.0317 4.2273 12.0317H7.1038C7.47967 12.0317 7.78562 12.3489 7.78562 12.7407C7.78562 13.1324 7.47967 13.4497 7.1038 13.4497H4.2273ZM4.2273 9.90456C3.85058 9.90456 3.54548 9.58728 3.54548 9.19553C3.54548 8.80378 3.85058 8.4865 4.2273 8.4865H9.34104C9.71775 8.4865 10.0229 8.80378 10.0229 9.19553C10.0229 9.58728 9.71775 9.90456 9.34104 9.90456H4.2273ZM9.68184 13.4497C9.30598 13.4497 9.00002 13.1324 9.00002 12.7407C9.00002 12.3489 9.30598 12.0317 9.68184 12.0317H13.7728C14.1495 12.0317 14.4537 12.3489 14.4537 12.7407C14.4537 13.1324 14.1495 13.4497 13.7728 13.4497H9.68184ZM4.2273 16.2859C3.85058 16.2859 3.54548 15.9686 3.54548 15.5768C3.54548 15.1851 3.85058 14.8678 4.2273 14.8678H13.7728C14.1495 14.8678 14.4537 15.1851 14.4537 15.5768C14.4537 15.9686 14.1495 16.2859 13.7728 16.2859H4.2273ZM12.4091 9.90456C12.0324 9.90456 11.7273 9.58728 11.7273 9.19553C11.7273 8.80378 12.0324 8.4865 12.4091 8.4865H13.7728C14.1495 8.4865 14.4537 8.80378 14.4537 9.19553C14.4537 9.58728 14.1495 9.90456 13.7728 9.90456H12.4091Z" fill="#0051D2"/>
</svg>
