<svg width="19" height="21" viewBox="0 0 19 21" fill="none" xmlns="http://www.w3.org/2000/svg">
<path d="M5.50757 1.31561C5.41185 1.06298 5.53915 0.780742 5.7908 0.68502C5.97139 0.616928 6.15888 0.551797 6.34934 0.4916C8.549 -0.199196 10.8454 -0.12813 12.9928 0.695876C14.7069 1.35411 16.2159 2.47615 17.3378 3.91011L17.3862 3.66142C17.4375 3.39596 17.6941 3.22326 17.9585 3.27459C18.224 3.32591 18.3967 3.5825 18.3454 3.84695L18.0759 5.23544C18.0513 5.36275 17.9773 5.47524 17.8697 5.54729C17.7888 5.60255 17.693 5.63117 17.5963 5.63117C17.5658 5.63117 17.5342 5.62821 17.5036 5.62229L16.1151 5.3519C15.8496 5.30058 15.6769 5.04399 15.7283 4.77855C15.7796 4.51309 16.0362 4.34039 16.3016 4.39172L16.5089 4.43218C14.1868 1.51202 10.2858 0.278668 6.64232 1.42334C6.47061 1.47762 6.29988 1.53683 6.13706 1.59801C5.88443 1.69374 5.60219 1.56643 5.50647 1.31479L5.50757 1.31561ZM12.6197 18.6545C12.4519 18.7186 12.2822 18.7768 12.1144 18.8282C8.47094 19.9729 4.57006 18.7393 2.24787 15.8193L2.45609 15.8598C2.72156 15.9111 2.97714 15.7384 3.02944 15.4729C3.08075 15.2075 2.90806 14.9519 2.64261 14.8996L1.25412 14.6292C1.12682 14.6045 0.994592 14.6312 0.887022 14.7042C0.779456 14.7763 0.705443 14.8888 0.680771 15.0161L0.411365 16.4046C0.36005 16.67 0.533734 16.9256 0.798194 16.9769C0.829773 16.9828 0.860364 16.9858 0.891943 16.9858C1.12089 16.9858 1.32617 16.823 1.37154 16.5901L1.41989 16.3414C2.54193 17.7753 4.05181 18.8973 5.76491 19.5556C6.94022 20.0066 8.16096 20.2326 9.38562 20.2306C10.3971 20.2286 11.4116 20.0727 12.4043 19.7609C12.5898 19.7036 12.7783 19.6385 12.9649 19.5675C13.2175 19.4717 13.3448 19.1895 13.2481 18.9369C13.1524 18.6842 12.8701 18.5569 12.6175 18.6536L12.6197 18.6545ZM0.110352 10.4942V3.68883C0.110352 2.95956 0.707396 2.36252 1.43667 2.36252H9.97688C10.7071 2.36252 11.3032 2.95956 11.3032 3.68883V10.4942C11.3032 11.2235 10.7071 11.8205 9.97688 11.8205H5.63187L2.84206 14.0636V11.8205H1.43778C0.708507 11.8205 0.111463 11.2235 0.111463 10.4942H0.110352ZM4.32425 5.32715C4.32425 5.59754 4.54333 5.81564 4.81273 5.81564H8.50747C8.77688 5.81564 8.99596 5.59656 8.99596 5.32715C8.99596 5.05676 8.77688 4.83866 8.50747 4.83866H4.81273C4.54333 4.83866 4.32425 5.05774 4.32425 5.32715ZM2.41668 5.32715C2.41668 5.59754 2.63576 5.81564 2.90615 5.81564C3.17654 5.81564 3.39464 5.59656 3.39464 5.32715C3.39464 5.05676 3.17556 4.83866 2.90615 4.83866H2.90516C2.63576 4.83866 2.41668 5.05774 2.41668 5.32715ZM2.41668 7.09262C2.41668 7.36301 2.63576 7.5811 2.90516 7.5811H8.50752C8.77693 7.5811 8.99601 7.36202 8.99601 7.09262C8.99601 6.82222 8.77693 6.60413 8.50752 6.60413H2.90516C2.63576 6.60413 2.41668 6.82321 2.41668 7.09262ZM2.41668 8.8571C2.41668 9.12749 2.63576 9.34558 2.90516 9.34558H8.50752C8.77693 9.34558 8.99601 9.1265 8.99601 8.8571C8.99601 8.5867 8.77693 8.36861 8.50752 8.36861H2.90516C2.63576 8.36861 2.41668 8.58769 2.41668 8.8571ZM18.6472 8.68933V15.4947C18.6472 16.224 18.0502 16.821 17.3209 16.821H15.9167V19.0641L13.1268 16.821H8.78183C8.05256 16.821 7.45551 16.224 7.45551 15.4947V12.7986H9.97789C11.2479 12.7986 12.2812 11.7654 12.2812 10.4953V7.36398H17.3209C18.0502 7.36398 18.6472 7.96102 18.6472 8.69029V8.68933ZM16.341 13.8564C16.341 13.586 16.1219 13.3679 15.8525 13.3679H10.2501C9.98074 13.3679 9.76166 13.587 9.76166 13.8564C9.76166 14.1268 9.98074 14.3449 10.2501 14.3449H15.8525C16.1219 14.3449 16.341 14.1258 16.341 13.8564ZM16.341 12.0909C16.341 11.8205 16.1219 11.6025 15.8525 11.6025H12.8298C12.5604 11.6025 12.3413 11.8215 12.3413 12.0909C12.3413 12.3613 12.5604 12.5794 12.8298 12.5794H15.8525C16.1219 12.5794 16.341 12.3603 16.341 12.0909ZM16.341 10.3265C16.341 10.0561 16.1219 9.83797 15.8525 9.83797H13.2688C12.9994 9.83797 12.7804 10.0571 12.7804 10.3265C12.7804 10.5969 12.9994 10.8149 13.2688 10.8149H15.8525C16.1219 10.8149 16.341 10.5959 16.341 10.3265Z" fill="#0051D2"/>
</svg>
