<svg width="70" height="65" viewBox="0 0 70 65" fill="none" xmlns="http://www.w3.org/2000/svg">
<g clip-path="url(#clip0_18_234)">
<path d="M31.8171 21.7274C30.7951 22.0352 29.822 22.4862 28.9275 23.0667C29.6052 23.7266 30.0999 24.5486 30.3642 25.4543C30.5645 26.1589 30.6226 26.8965 30.5351 27.6249C30.4476 28.3534 30.2162 29.0585 29.8542 29.6999C29.4922 30.3413 29.0066 30.9065 28.4252 31.3633C27.8438 31.82 27.178 32.1593 26.4657 32.3618C25.5466 32.6163 24.5783 32.6334 23.6533 32.4116C23.6378 34.7489 24.3649 37.0276 25.7316 38.925C27.0983 40.8223 29.0353 42.2421 31.2683 42.9832C33.5012 43.7242 35.9169 43.7491 38.1732 43.0541C40.4294 42.3592 42.4118 40.9797 43.8396 39.1111C45.2674 37.2425 46.0682 34.9795 46.1285 32.6427C46.1889 30.3058 45.5057 28.0136 44.1758 26.0906C42.8459 24.1677 40.9367 22.7115 38.7186 21.9284C36.5005 21.1453 34.086 21.075 31.8171 21.7274ZM62.0278 23.2249C53.893 14.5803 41.5445 10.6774 29.638 14.0624C17.7314 17.4474 9.28146 27.2685 6.91297 38.8951C6.81466 39.3916 6.8354 39.9035 6.97352 40.3893C7.11164 40.8751 7.36326 41.3213 7.70809 41.6919C15.8428 50.3365 28.1914 54.2394 40.0979 50.8544C52.0044 47.4694 60.4544 37.6483 62.8229 26.0217C62.9212 25.5252 62.9004 25.0133 62.7623 24.5275C62.6242 24.0417 62.3726 23.5955 62.0278 23.2249ZM38.7904 46.2554C29.2355 48.9718 18.9777 46.1925 11.8229 39.0101C14.1291 29.1379 21.3896 21.3781 30.9454 18.6614C40.5013 15.9447 50.7582 18.7243 57.9129 25.9067C55.6078 35.7786 48.3462 43.5387 38.7904 46.2554Z" fill="black"/>
</g>
<defs>
<clipPath id="clip0_18_234">
<rect width="58" height="51" fill="white" transform="translate(0 15.8608) rotate(-15.8704)"/>
</clipPath>
</defs>
</svg>
