<svg width="58" height="40" viewBox="0 0 58 40" fill="none" xmlns="http://www.w3.org/2000/svg">
<path d="M31.8647 8.81097C30.824 8.57403 29.7551 8.48579 28.6907 8.54893C28.9542 9.45742 28.9785 10.4165 28.7612 11.3346C28.5875 12.0462 28.2738 12.7163 27.8381 13.3066C27.4023 13.8968 26.853 14.3957 26.2215 14.7748C25.59 15.1538 24.8886 15.4056 24.1575 15.5157C23.4264 15.6258 22.6799 15.5921 21.9605 15.4166C21.0356 15.1841 20.1851 14.7209 19.4903 14.0713C18.3228 16.0962 17.83 18.4368 18.0817 20.7615C18.3334 23.0863 19.3168 25.2773 20.8927 27.0242C22.4686 28.7712 24.557 29.9855 26.8622 30.4952C29.1674 31.0048 31.5724 30.784 33.7366 29.864C35.9009 28.944 37.7146 27.3715 38.9208 25.3691C40.1271 23.3667 40.6648 21.0361 40.4577 18.7072C40.2507 16.3784 39.3094 14.1695 37.7671 12.3933C36.2249 10.6172 34.1599 9.36391 31.8647 8.81097ZM57.3969 25.0294C54.591 13.4955 45.7796 4.00453 33.7542 1.06947C21.7289 -1.86559 9.53163 2.5029 1.7315 11.4441C1.40084 11.8273 1.16617 12.2827 1.04641 12.7733C0.926657 13.264 0.925169 13.7762 1.04207 14.2687C3.84792 25.8026 12.6593 35.2936 24.6847 38.2287C36.7101 41.1637 48.9073 36.7952 56.7074 27.8541C57.0381 27.4708 57.2728 27.0155 57.3925 26.5248C57.5123 26.0342 57.5138 25.5219 57.3969 25.0294ZM25.8184 33.5838C16.1682 31.2284 8.62009 23.7468 5.94447 13.9683C12.8242 6.52197 22.9693 3.35878 32.6205 5.71437C42.2717 8.06996 49.8188 15.5513 52.4945 25.3299C45.6157 32.7764 35.4696 35.9394 25.8184 33.5838Z" fill="black"/>
</svg>
