<svg width="19" height="36" viewBox="0 0 19 36" fill="none" xmlns="http://www.w3.org/2000/svg">
<g clip-path="url(#clip0_1_316)">
<g clip-path="url(#clip1_1_316)">
<path d="M4.08868 2.20312C4.90103 2.75442 5.79884 3.43712 6.52244 4.19857C7.80629 5.54958 9.07957 7.07265 10.174 8.59659C10.9132 9.62608 11.8724 11.1883 12.3964 12.3374C13.0938 13.8667 13.5069 14.9381 13.8896 16.6183C14.4288 18.9853 14.3545 21.4145 13.8068 23.7047C13.001 27.074 10.4223 29.893 7.84549 32.1814C5.8296 33.9714 3.11931 35.1425 0.737998 36.0027L0.491943 35.3457C2.85148 34.4939 5.35235 33.356 7.28433 31.6384C9.76964 29.4286 12.0652 26.7339 13.0554 23.5227C13.6585 21.568 13.7985 19.4234 13.4821 17.3465C13.2049 15.5272 12.508 13.7038 11.8291 12.046C11.271 10.6831 10.6202 9.6215 9.8264 8.50332C8.81996 7.0855 7.71401 5.70284 6.53838 4.44034C5.77736 3.62312 4.7596 2.88533 3.94218 2.33062L4.08868 2.20312Z" fill="url(#paint0_linear_1_316)"/>
<path d="M5.12817 33.9918C5.12817 33.9918 6.80078 33.4576 8.12815 33.615C10.2354 33.8648 10.4297 35.1866 10.4297 35.1866C10.4297 35.1866 9.58431 35.7169 7.77104 35.5154C5.64679 35.2793 5.12817 33.9918 5.12817 33.9918Z" fill="url(#paint1_linear_1_316)"/>
<path d="M7.97339 32.0172C7.97339 32.0172 9.38297 31.3417 10.7194 31.3517C13.0331 31.369 13.1718 32.6106 13.1718 32.6106C13.1718 32.6106 12.3343 33.2211 10.4813 33.196C8.34445 33.167 7.97339 32.0172 7.97339 32.0172Z" fill="url(#paint2_linear_1_316)"/>
<path d="M10.0786 29.9462C10.0786 29.9462 11.4189 28.7593 12.7153 28.4311C14.9597 27.863 15.703 29.1824 15.703 29.1824C15.703 29.1824 14.8688 30.1937 13.0685 30.6378C10.9925 31.15 10.0786 29.9462 10.0786 29.9462Z" fill="url(#paint3_linear_1_316)"/>
<path d="M12.4575 26.7474C12.4575 26.7474 13.6037 25.5266 15.1728 25.0396C17.2205 24.4039 18.1829 25.6519 18.211 25.6831C18.211 25.6831 17.372 26.7501 15.6214 27.2179C13.2733 27.8454 12.4575 26.7474 12.4575 26.7474Z" fill="url(#paint4_linear_1_316)"/>
<path d="M13.5886 24.197C13.5886 24.197 14.6561 22.5546 16.2483 21.7794C17.795 21.0259 18.925 21.6675 18.953 21.6927C18.953 21.6927 18.1585 23.1597 16.6967 23.8627C14.7107 24.8179 13.5886 24.197 13.5886 24.197Z" fill="url(#paint5_linear_1_316)"/>
<path d="M13.9336 21.9645C14.5034 21.423 14.5458 19.951 15.3602 18.7565C16.4963 17.0901 18.3704 17.2109 18.3984 17.2266C18.3984 17.2266 18.1978 19.3027 16.7771 20.5576C15.2672 21.8911 13.9336 21.9645 13.9336 21.9645Z" fill="url(#paint6_linear_1_316)"/>
<path d="M14.0965 18.4699C14.0965 18.4699 14.0412 16.6654 14.5122 15.2951C15.1692 13.3835 16.9628 13.0082 16.9939 13.0157C16.9939 13.0157 17.2848 15.0598 16.2451 16.6509C15.1402 18.3419 14.0965 18.4699 14.0965 18.4699Z" fill="url(#paint7_linear_1_316)"/>
<path d="M13.3338 15.0864C13.3338 15.0864 12.976 13.5715 13.1572 12.1326C13.4304 9.96379 15.1008 9.50469 15.1327 9.50783C15.1327 9.50783 15.7053 11.5166 14.8907 13.2363C14.025 15.064 13.3338 15.0864 13.3338 15.0864Z" fill="url(#paint8_linear_1_316)"/>
<path d="M11.8639 11.4533C11.8639 11.4533 11.2821 10.083 11.3567 8.63437C11.4601 6.62394 12.8084 5.77461 12.8404 5.77344C12.8404 5.77344 14.1405 6.95776 13.3938 9.50705C12.9409 11.0534 11.8639 11.4533 11.8639 11.4533Z" fill="url(#paint9_linear_1_316)"/>
<path d="M9.99294 8.47371C9.99294 8.47371 9.12846 7.12827 8.88931 5.69796C8.66479 4.35517 9.20398 2.89226 9.32435 2.75781C9.32435 2.75781 10.731 3.38244 10.6783 5.77964C10.6429 7.39195 9.99294 8.47371 9.99294 8.47371Z" fill="url(#paint10_linear_1_316)"/>
<path d="M7.69677 5.58841C7.69677 5.58841 6.66602 4.4794 6.39754 2.963C6.17532 1.70638 6.39932 0.340828 6.63354 0C6.63354 0 7.97797 0.843987 8.07566 2.97841C8.14938 4.58937 7.80339 5.35594 7.69677 5.58841Z" fill="url(#paint11_linear_1_316)"/>
<path d="M6.02334 3.81984C6.02334 3.81984 4.05895 3.89155 3.08265 3.31884C1.98982 2.67778 0.917386 1.28631 0.832764 0.8801C0.832764 0.8801 2.55328 0.11784 4.15744 1.5102C5.36819 2.56107 5.92907 3.58198 6.02334 3.81984Z" fill="url(#paint12_linear_1_316)"/>
<path d="M8.18756 6.21693C8.18756 6.21693 7.24796 5.10545 5.6334 4.81828C4.38888 4.59696 3.43213 4.80131 2.81787 5.16294C2.81787 5.16294 3.7655 6.38965 5.58184 6.55876C7.17125 6.70672 7.95405 6.31693 8.18756 6.21693Z" fill="url(#paint13_linear_1_316)"/>
<path d="M10.1329 8.77659C10.1329 8.77659 9.23823 7.71046 7.62362 7.42334C6.3791 7.20202 5.7815 7.42905 5.16724 7.79068C5.16724 7.79068 5.92408 8.96072 7.74042 9.12979C9.32983 9.27774 9.89942 8.87659 10.1329 8.77659Z" fill="url(#paint14_linear_1_316)"/>
<path d="M12.0156 12.1217C12.0156 12.1217 11.1799 10.8077 9.66866 10.1656C8.1201 9.50753 7.32473 9.82173 6.65869 10.0729C6.87109 10.3948 7.74032 11.7367 9.1496 12.1395C10.6854 12.5785 11.7687 12.1803 12.0156 12.1217Z" fill="url(#paint15_linear_1_316)"/>
<path d="M13.1327 15.0853C13.1327 15.0853 12.3921 13.7143 10.9302 12.9646C9.43225 12.1963 8.6167 12.4522 7.93457 12.6546C8.12364 12.9911 8.89563 14.3923 10.2727 14.8959C11.7736 15.4448 12.8823 15.1259 13.1327 15.0853Z" fill="url(#paint16_linear_1_316)"/>
<path d="M13.7188 18.6214C13.0778 17.7911 12.7294 16.8985 11.7433 16.0102C10.5283 14.9157 9.48582 15.2646 8.77832 15.3353C9.1266 15.9963 9.64955 17.0418 10.7303 17.8296C12.0248 18.7731 13.4652 18.6142 13.7188 18.6214Z" fill="url(#paint17_linear_1_316)"/>
<path d="M13.6407 21.8677C13.0958 20.9702 12.8371 20.2707 11.9556 19.2764C10.8695 18.0515 9.83979 18.269 9.12891 18.2592C9.40182 18.9554 9.86179 19.9968 10.8486 20.9018C12.0304 21.9857 13.3897 21.8319 13.6407 21.8677Z" fill="url(#paint18_linear_1_316)"/>
<path d="M12.9374 24.4678C12.1175 23.1889 12.221 22.8994 11.4185 21.839C10.5566 20.7001 9.46806 20.7314 8.76025 20.6641C8.97701 21.3801 9.30091 22.3488 10.2196 23.3241C11.1994 24.3642 12.2185 24.2303 12.9374 24.4678Z" fill="url(#paint19_linear_1_316)"/>
<path d="M11.5938 27.0056C11.0769 25.8741 11.1661 25.1675 10.6922 24.3654C9.91698 23.0536 9.15704 22.997 8.44922 22.9297C9.01379 24.564 8.88308 24.5716 9.50459 25.567C10.1093 26.5357 10.931 26.666 11.5938 27.0056Z" fill="url(#paint20_linear_1_316)"/>
<path d="M9.96866 29.1431C9.67408 27.9329 9.97319 27.5626 9.65875 26.6841C9.14449 25.2473 8.40903 25.0458 7.72681 24.8438C7.80526 25.8083 7.68682 26.4202 8.22188 27.4656C8.59972 28.2038 9.38191 28.6824 9.96866 29.1431Z" fill="url(#paint21_linear_1_316)"/>
<path d="M6.69303 26.7657C6.69303 26.7657 6.10223 27.9181 6.29849 29.2538C6.57652 31.1462 7.57745 31.4298 7.57745 31.4298C7.57745 31.4298 8.14754 30.5696 8.08958 28.8243C8.0277 26.96 6.69303 26.7657 6.69303 26.7657Z" fill="url(#paint22_linear_1_316)"/>
<path d="M4.56097 28.6953C4.56097 28.6953 3.96973 29.8621 4.09907 31.2061C4.26486 32.9285 5.19844 33.3594 5.19844 33.3594C5.19844 33.3594 5.78652 32.3979 5.81159 30.9468C5.84983 28.7309 4.56097 28.6953 4.56097 28.6953Z" fill="url(#paint23_linear_1_316)"/>
</g>
</g>
<defs>
<linearGradient id="paint0_linear_1_316" x1="0.491943" y1="19.1029" x2="14.2579" y2="19.1029" gradientUnits="userSpaceOnUse">
<stop stop-color="#0051D2"/>
<stop offset="1" stop-color="#297BFE"/>
</linearGradient>
<linearGradient id="paint1_linear_1_316" x1="5.12817" y1="34.5736" x2="10.4297" y2="34.5736" gradientUnits="userSpaceOnUse">
<stop stop-color="#0051D2"/>
<stop offset="1" stop-color="#297BFE"/>
</linearGradient>
<linearGradient id="paint2_linear_1_316" x1="7.97339" y1="32.2741" x2="13.1718" y2="32.2741" gradientUnits="userSpaceOnUse">
<stop stop-color="#0051D2"/>
<stop offset="1" stop-color="#297BFE"/>
</linearGradient>
<linearGradient id="paint3_linear_1_316" x1="10.0786" y1="29.5269" x2="15.703" y2="29.5269" gradientUnits="userSpaceOnUse">
<stop stop-color="#0051D2"/>
<stop offset="1" stop-color="#297BFE"/>
</linearGradient>
<linearGradient id="paint4_linear_1_316" x1="12.4575" y1="26.1355" x2="18.211" y2="26.1355" gradientUnits="userSpaceOnUse">
<stop stop-color="#0051D2"/>
<stop offset="1" stop-color="#297BFE"/>
</linearGradient>
<linearGradient id="paint5_linear_1_316" x1="13.5884" y1="22.9047" x2="18.953" y2="22.9047" gradientUnits="userSpaceOnUse">
<stop stop-color="#0051D2"/>
<stop offset="1" stop-color="#297BFE"/>
</linearGradient>
<linearGradient id="paint6_linear_1_316" x1="13.9336" y1="19.5917" x2="18.3984" y2="19.5917" gradientUnits="userSpaceOnUse">
<stop stop-color="#0051D2"/>
<stop offset="1" stop-color="#297BFE"/>
</linearGradient>
<linearGradient id="paint7_linear_1_316" x1="14.0945" y1="15.7427" x2="17.0313" y2="15.7427" gradientUnits="userSpaceOnUse">
<stop stop-color="#0051D2"/>
<stop offset="1" stop-color="#297BFE"/>
</linearGradient>
<linearGradient id="paint8_linear_1_316" x1="13.106" y1="12.2971" x2="15.3282" y2="12.2971" gradientUnits="userSpaceOnUse">
<stop stop-color="#0051D2"/>
<stop offset="1" stop-color="#297BFE"/>
</linearGradient>
<linearGradient id="paint9_linear_1_316" x1="11.3501" y1="8.61337" x2="13.6251" y2="8.61337" gradientUnits="userSpaceOnUse">
<stop stop-color="#0051D2"/>
<stop offset="1" stop-color="#297BFE"/>
</linearGradient>
<linearGradient id="paint10_linear_1_316" x1="8.83521" y1="5.61576" x2="10.6797" y2="5.61576" gradientUnits="userSpaceOnUse">
<stop stop-color="#0051D2"/>
<stop offset="1" stop-color="#297BFE"/>
</linearGradient>
<linearGradient id="paint11_linear_1_316" x1="6.30615" y1="2.7943" x2="8.08587" y2="2.7943" gradientUnits="userSpaceOnUse">
<stop stop-color="#0051D2"/>
<stop offset="1" stop-color="#297BFE"/>
</linearGradient>
<linearGradient id="paint12_linear_1_316" x1="0.832764" y1="2.2473" x2="6.02334" y2="2.2473" gradientUnits="userSpaceOnUse">
<stop stop-color="#0051D2"/>
<stop offset="1" stop-color="#297BFE"/>
</linearGradient>
<linearGradient id="paint13_linear_1_316" x1="2.81787" y1="5.65922" x2="8.1876" y2="5.65922" gradientUnits="userSpaceOnUse">
<stop stop-color="#0051D2"/>
<stop offset="1" stop-color="#297BFE"/>
</linearGradient>
<linearGradient id="paint14_linear_1_316" x1="5.16724" y1="8.24906" x2="10.1329" y2="8.24906" gradientUnits="userSpaceOnUse">
<stop stop-color="#0051D2"/>
<stop offset="1" stop-color="#297BFE"/>
</linearGradient>
<linearGradient id="paint15_linear_1_316" x1="6.65869" y1="11.0583" x2="12.0156" y2="11.0583" gradientUnits="userSpaceOnUse">
<stop stop-color="#0051D2"/>
<stop offset="1" stop-color="#297BFE"/>
</linearGradient>
<linearGradient id="paint16_linear_1_316" x1="7.93457" y1="13.8297" x2="13.1327" y2="13.8297" gradientUnits="userSpaceOnUse">
<stop stop-color="#0051D2"/>
<stop offset="1" stop-color="#297BFE"/>
</linearGradient>
<linearGradient id="paint17_linear_1_316" x1="8.77832" y1="16.927" x2="13.7188" y2="16.927" gradientUnits="userSpaceOnUse">
<stop stop-color="#0051D2"/>
<stop offset="1" stop-color="#297BFE"/>
</linearGradient>
<linearGradient id="paint18_linear_1_316" x1="9.12891" y1="20.0588" x2="13.6407" y2="20.0588" gradientUnits="userSpaceOnUse">
<stop stop-color="#0051D2"/>
<stop offset="1" stop-color="#297BFE"/>
</linearGradient>
<linearGradient id="paint19_linear_1_316" x1="8.76025" y1="22.566" x2="12.9374" y2="22.566" gradientUnits="userSpaceOnUse">
<stop stop-color="#0051D2"/>
<stop offset="1" stop-color="#297BFE"/>
</linearGradient>
<linearGradient id="paint20_linear_1_316" x1="8.44922" y1="24.9676" x2="11.5938" y2="24.9676" gradientUnits="userSpaceOnUse">
<stop stop-color="#0051D2"/>
<stop offset="1" stop-color="#297BFE"/>
</linearGradient>
<linearGradient id="paint21_linear_1_316" x1="7.72681" y1="26.9935" x2="9.96866" y2="26.9935" gradientUnits="userSpaceOnUse">
<stop stop-color="#0051D2"/>
<stop offset="1" stop-color="#297BFE"/>
</linearGradient>
<linearGradient id="paint22_linear_1_316" x1="6.25854" y1="29.0977" x2="8.09371" y2="29.0977" gradientUnits="userSpaceOnUse">
<stop stop-color="#0051D2"/>
<stop offset="1" stop-color="#297BFE"/>
</linearGradient>
<linearGradient id="paint23_linear_1_316" x1="4.08057" y1="31.0274" x2="5.81242" y2="31.0274" gradientUnits="userSpaceOnUse">
<stop stop-color="#0051D2"/>
<stop offset="1" stop-color="#297BFE"/>
</linearGradient>
<clipPath id="clip0_1_316">
<rect width="19" height="36" fill="white"/>
</clipPath>
<clipPath id="clip1_1_316">
<rect width="19" height="36" fill="white"/>
</clipPath>
</defs>
</svg>
