<svg width="1305" height="365" viewBox="0 0 1305 365" fill="none" xmlns="http://www.w3.org/2000/svg">
<ellipse cx="27" cy="347.5" rx="27" ry="17.5" fill="#0051D2"/>
<ellipse cx="1259.5" cy="347.5" rx="45.5" ry="17.5" fill="#0051D2"/>
<path d="M24 333C113.371 227 359.65 15 629.797 15C899.944 15 1160.49 227 1257 333" stroke="#0051D2" stroke-opacity="0.3"/>
<path d="M24 333C113.401 227 359.763 15 630 15" stroke="#0051D2"/>
<circle cx="641.331" cy="13.3312" r="13.3312" fill="white"/>
<circle cx="641.331" cy="13.3312" r="6.93223" fill="url(#paint0_linear_474_283)"/>
<path d="M22.008 353.24C21.2613 353.24 20.5947 353.072 20.008 352.736C19.4267 352.395 18.9653 351.933 18.624 351.352C18.288 350.765 18.12 350.099 18.12 349.352V345.128C18.12 344.381 18.288 343.715 18.624 343.128C18.9653 342.541 19.4267 342.08 20.008 341.744C20.5947 341.408 21.2613 341.24 22.008 341.24C22.7547 341.24 23.4213 341.408 24.008 341.744C24.5947 342.08 25.056 342.541 25.392 343.128C25.728 343.715 25.896 344.381 25.896 345.128V349.352C25.896 350.099 25.728 350.765 25.392 351.352C25.056 351.933 24.5947 352.395 24.008 352.736C23.4213 353.072 22.7547 353.24 22.008 353.24ZM22.008 351.872C22.4613 351.872 22.872 351.763 23.24 351.544C23.608 351.325 23.9013 351.032 24.12 350.664C24.3387 350.291 24.448 349.88 24.448 349.432V345.04C24.448 344.587 24.3387 344.176 24.12 343.808C23.9013 343.44 23.608 343.147 23.24 342.928C22.872 342.709 22.4613 342.6 22.008 342.6C21.56 342.6 21.1493 342.709 20.776 342.928C20.408 343.147 20.1147 343.44 19.896 343.808C19.6773 344.176 19.568 344.587 19.568 345.04V349.432C19.568 349.88 19.6773 350.291 19.896 350.664C20.1147 351.032 20.408 351.325 20.776 351.544C21.1493 351.763 21.56 351.872 22.008 351.872ZM34.1196 353.24C32.989 353.24 32.021 352.981 31.2156 352.464C30.4156 351.941 29.8023 351.229 29.3756 350.328C28.949 349.421 28.7356 348.392 28.7356 347.24C28.7623 346.035 28.989 344.984 29.4156 344.088C29.8423 343.187 30.4503 342.488 31.2396 341.992C32.0343 341.491 32.9943 341.24 34.1196 341.24C34.6316 341.24 35.125 341.301 35.5996 341.424C36.0796 341.541 36.5223 341.723 36.9276 341.968L36.1676 343.16C35.869 342.973 35.5436 342.835 35.1916 342.744C34.845 342.648 34.4876 342.6 34.1196 342.6C33.261 342.595 32.5463 342.789 31.9756 343.184C31.405 343.573 30.9756 344.12 30.6876 344.824C30.405 345.523 30.261 346.328 30.2556 347.24C30.261 348.168 30.4076 348.981 30.6956 349.68C30.9836 350.373 31.413 350.915 31.9836 351.304C32.5543 351.688 33.2663 351.88 34.1196 351.88C34.8716 351.896 35.5596 351.712 36.1836 351.328L36.9356 352.504C36.525 352.749 36.0796 352.933 35.5996 353.056C35.1196 353.179 34.6263 353.24 34.1196 353.24ZM27.4956 349.144V347.968H34.8476V349.144H27.4956ZM27.4956 346.536V345.36H34.8476V346.536H27.4956Z" fill="white"/>
<path d="M1233.02 350.88V347.824H1229.96V346.648H1233.02V343.6H1234.19V346.648H1237.24V347.824H1234.19V350.88H1233.02ZM1242.73 353.24C1242.14 353.24 1241.59 353.117 1241.08 352.872C1240.57 352.627 1240.13 352.291 1239.77 351.864C1239.41 351.432 1239.16 350.936 1239 350.376L1240.37 350.008C1240.47 350.387 1240.64 350.715 1240.88 350.992C1241.13 351.264 1241.41 351.477 1241.74 351.632C1242.07 351.781 1242.41 351.856 1242.77 351.856C1243.24 351.856 1243.66 351.744 1244.04 351.52C1244.41 351.291 1244.71 350.989 1244.93 350.616C1245.15 350.237 1245.26 349.824 1245.26 349.376C1245.26 348.912 1245.14 348.493 1244.92 348.12C1244.69 347.741 1244.39 347.443 1244.01 347.224C1243.63 347.005 1243.22 346.896 1242.77 346.896C1242.26 346.896 1241.83 347.003 1241.47 347.216C1241.11 347.424 1240.83 347.68 1240.62 347.984L1239.36 347.504L1239.71 341.48H1245.89V342.832H1240.4L1241.03 342.24L1240.73 347.064L1240.42 346.656C1240.74 346.315 1241.12 346.051 1241.56 345.864C1242.01 345.677 1242.47 345.584 1242.93 345.584C1243.65 345.584 1244.29 345.752 1244.85 346.088C1245.42 346.419 1245.86 346.872 1246.2 347.448C1246.53 348.019 1246.69 348.661 1246.69 349.376C1246.69 350.085 1246.51 350.733 1246.15 351.32C1245.78 351.901 1245.3 352.368 1244.7 352.72C1244.1 353.067 1243.45 353.24 1242.73 353.24ZM1252.49 353.24C1251.75 353.24 1251.08 353.072 1250.49 352.736C1249.91 352.395 1249.45 351.933 1249.11 351.352C1248.77 350.765 1248.6 350.099 1248.6 349.352V345.128C1248.6 344.381 1248.77 343.715 1249.11 343.128C1249.45 342.541 1249.91 342.08 1250.49 341.744C1251.08 341.408 1251.75 341.24 1252.49 341.24C1253.24 341.24 1253.91 341.408 1254.49 341.744C1255.08 342.08 1255.54 342.541 1255.88 343.128C1256.21 343.715 1256.38 344.381 1256.38 345.128V349.352C1256.38 350.099 1256.21 350.765 1255.88 351.352C1255.54 351.933 1255.08 352.395 1254.49 352.736C1253.91 353.072 1253.24 353.24 1252.49 353.24ZM1252.49 351.872C1252.95 351.872 1253.36 351.763 1253.72 351.544C1254.09 351.325 1254.39 351.032 1254.6 350.664C1254.82 350.291 1254.93 349.88 1254.93 349.432V345.04C1254.93 344.587 1254.82 344.176 1254.6 343.808C1254.39 343.44 1254.09 343.147 1253.72 342.928C1253.36 342.709 1252.95 342.6 1252.49 342.6C1252.04 342.6 1251.63 342.709 1251.26 342.928C1250.89 343.147 1250.6 343.44 1250.38 343.808C1250.16 344.176 1250.05 344.587 1250.05 345.04V349.432C1250.05 349.88 1250.16 350.291 1250.38 350.664C1250.6 351.032 1250.89 351.325 1251.26 351.544C1251.63 351.763 1252.04 351.872 1252.49 351.872ZM1262.51 353.24C1261.76 353.24 1261.09 353.072 1260.51 352.736C1259.93 352.395 1259.47 351.933 1259.12 351.352C1258.79 350.765 1258.62 350.099 1258.62 349.352V345.128C1258.62 344.381 1258.79 343.715 1259.12 343.128C1259.47 342.541 1259.93 342.08 1260.51 341.744C1261.09 341.408 1261.76 341.24 1262.51 341.24C1263.25 341.24 1263.92 341.408 1264.51 341.744C1265.09 342.08 1265.56 342.541 1265.89 343.128C1266.23 343.715 1266.4 344.381 1266.4 345.128V349.352C1266.4 350.099 1266.23 350.765 1265.89 351.352C1265.56 351.933 1265.09 352.395 1264.51 352.736C1263.92 353.072 1263.25 353.24 1262.51 353.24ZM1262.51 351.872C1262.96 351.872 1263.37 351.763 1263.74 351.544C1264.11 351.325 1264.4 351.032 1264.62 350.664C1264.84 350.291 1264.95 349.88 1264.95 349.432V345.04C1264.95 344.587 1264.84 344.176 1264.62 343.808C1264.4 343.44 1264.11 343.147 1263.74 342.928C1263.37 342.709 1262.96 342.6 1262.51 342.6C1262.06 342.6 1261.65 342.709 1261.28 342.928C1260.91 343.147 1260.61 343.44 1260.4 343.808C1260.18 344.176 1260.07 344.587 1260.07 345.04V349.432C1260.07 349.88 1260.18 350.291 1260.4 350.664C1260.61 351.032 1260.91 351.325 1261.28 351.544C1261.65 351.763 1262.06 351.872 1262.51 351.872ZM1272.52 353.24C1271.78 353.24 1271.11 353.072 1270.52 352.736C1269.94 352.395 1269.48 351.933 1269.14 351.352C1268.8 350.765 1268.64 350.099 1268.64 349.352V345.128C1268.64 344.381 1268.8 343.715 1269.14 343.128C1269.48 342.541 1269.94 342.08 1270.52 341.744C1271.11 341.408 1271.78 341.24 1272.52 341.24C1273.27 341.24 1273.94 341.408 1274.52 341.744C1275.11 342.08 1275.57 342.541 1275.91 343.128C1276.24 343.715 1276.41 344.381 1276.41 345.128V349.352C1276.41 350.099 1276.24 350.765 1275.91 351.352C1275.57 351.933 1275.11 352.395 1274.52 352.736C1273.94 353.072 1273.27 353.24 1272.52 353.24ZM1272.52 351.872C1272.98 351.872 1273.39 351.763 1273.76 351.544C1274.12 351.325 1274.42 351.032 1274.64 350.664C1274.85 350.291 1274.96 349.88 1274.96 349.432V345.04C1274.96 344.587 1274.85 344.176 1274.64 343.808C1274.42 343.44 1274.12 343.147 1273.76 342.928C1273.39 342.709 1272.98 342.6 1272.52 342.6C1272.08 342.6 1271.66 342.709 1271.29 342.928C1270.92 343.147 1270.63 343.44 1270.41 343.808C1270.19 344.176 1270.08 344.587 1270.08 345.04V349.432C1270.08 349.88 1270.19 350.291 1270.41 350.664C1270.63 351.032 1270.92 351.325 1271.29 351.544C1271.66 351.763 1272.08 351.872 1272.52 351.872ZM1284.64 353.24C1283.5 353.24 1282.54 352.981 1281.73 352.464C1280.93 351.941 1280.32 351.229 1279.89 350.328C1279.46 349.421 1279.25 348.392 1279.25 347.24C1279.28 346.035 1279.5 344.984 1279.93 344.088C1280.36 343.187 1280.97 342.488 1281.76 341.992C1282.55 341.491 1283.51 341.24 1284.64 341.24C1285.15 341.24 1285.64 341.301 1286.12 341.424C1286.6 341.541 1287.04 341.723 1287.44 341.968L1286.68 343.16C1286.38 342.973 1286.06 342.835 1285.71 342.744C1285.36 342.648 1285 342.6 1284.64 342.6C1283.78 342.595 1283.06 342.789 1282.49 343.184C1281.92 343.573 1281.49 344.12 1281.2 344.824C1280.92 345.523 1280.78 346.328 1280.77 347.24C1280.78 348.168 1280.92 348.981 1281.21 349.68C1281.5 350.373 1281.93 350.915 1282.5 351.304C1283.07 351.688 1283.78 351.88 1284.64 351.88C1285.39 351.896 1286.08 351.712 1286.7 351.328L1287.45 352.504C1287.04 352.749 1286.6 352.933 1286.12 353.056C1285.64 353.179 1285.14 353.24 1284.64 353.24ZM1278.01 349.144V347.968H1285.36V349.144H1278.01ZM1278.01 346.536V345.36H1285.36V346.536H1278.01Z" fill="white"/>
<defs>
<linearGradient id="paint0_linear_474_283" x1="634.399" y1="13.3312" x2="648.263" y2="13.3312" gradientUnits="userSpaceOnUse">
<stop stop-color="#0051D2"/>
<stop offset="1" stop-color="#297BFE"/>
</linearGradient>
</defs>
</svg>
