<svg width="75" height="15" viewBox="0 0 75 15" fill="none" xmlns="http://www.w3.org/2000/svg">
<path d="M7.4995 0.000254062L9.18442 5.1819L14.6331 5.18067L10.2258 8.38433L11.9107 13.566L7.50185 10.3643L3.09448 13.568L4.77705 8.38557L0.368226 5.1839L5.81693 5.18266L7.4995 0.000254062Z" fill="#0051D2"/>
<path d="M22.4995 0.000254062L24.1844 5.1819L29.6331 5.18067L25.2258 8.38433L26.9107 13.566L22.5018 10.3643L18.0945 13.568L19.777 8.38557L15.3682 5.1839L20.8169 5.18266L22.4995 0.000254062Z" fill="#0051D2"/>
<path d="M37.4995 0.000254062L39.1844 5.1819L44.6331 5.18067L40.2258 8.38433L41.9107 13.566L37.5018 10.3643L33.0945 13.568L34.777 8.38557L30.3682 5.1839L35.8169 5.18266L37.4995 0.000254062Z" fill="#0051D2"/>
<path d="M52.4995 0.000254062L54.1844 5.1819L59.6331 5.18067L55.2258 8.38433L56.9107 13.566L52.5018 10.3643L48.0945 13.568L49.777 8.38557L45.3682 5.1839L50.8169 5.18266L52.4995 0.000254062Z" fill="#0051D2"/>
<path d="M67.4995 0.000254062L69.1844 5.1819L74.6331 5.18067L70.2258 8.38433L71.9107 13.566L67.5018 10.3643L63.0945 13.568L64.777 8.38557L60.3682 5.1839L65.8169 5.18266L67.4995 0.000254062Z" fill="#0051D2"/>
</svg>
