<svg width="173" height="73" viewBox="0 0 173 73" fill="none" xmlns="http://www.w3.org/2000/svg">
<path d="M65.8026 19.9442C61.8917 26.4315 61.6222 33.7581 61.8912 40.5022C62.0106 44.2957 63.0321 48.0061 64.8712 51.3261C65.9109 53.0567 67.2401 54.5958 68.801 55.8763C65.7489 60.172 61.6765 63.6413 56.9503 65.9718C52.5403 67.9217 47.6957 68.68 42.9008 68.1711C38.4124 67.7097 34.0296 66.5181 29.9255 64.6434C26.2366 62.965 22.7267 60.9183 19.4493 58.5345C14.608 54.9518 9.97411 51.097 5.57007 46.9887C2.38051 44.0912 0.58647 42.5248 0.437375 42.7121C1.63076 44.649 3.07161 46.4221 4.72353 47.9864C8.83412 52.5718 13.3014 56.8246 18.0835 60.7047C25.0952 66.6366 33.5928 70.5427 42.6604 72.0022C48.0551 72.7591 53.554 72.0833 58.6049 70.0427C64.0186 67.5881 68.7296 63.814 72.3062 59.0662C72.4876 58.8524 72.6384 58.5881 72.8156 58.3561C72.9201 58.4147 73.028 58.4671 73.1388 58.5126C78.9142 60.811 85.1907 61.5575 91.3442 60.6779L93.4784 60.5375C94.171 60.3799 94.8661 60.3176 95.5529 60.2189C96.9407 59.999 98.3102 59.7833 99.6838 59.5859L103.657 58.682C104.959 58.409 106.242 58.0531 107.498 57.6165C108.767 57.2128 109.996 56.7991 111.229 56.4036C112.461 56.0082 113.602 55.4611 114.745 55.0093C115.889 54.5575 117.064 54.0792 118.245 53.5421C119.427 53.005 120.413 52.4547 121.481 51.9242C128.809 48.1511 135.688 43.5639 141.988 38.2494C144.724 36.0359 147.066 33.7777 149.254 31.7656C151.442 29.7535 153.307 27.7573 154.979 25.9201C159.504 21.1385 163.629 15.9942 167.314 10.5387L167.628 10.0646L167.535 11.4276L167.37 14.494L167.101 20.3061C166.968 24.017 166.924 27.3626 166.954 30.1928C167.029 35.8308 167.43 39.3627 168.152 39.505C168.875 39.6474 169.764 36.2246 170.634 30.6974C171.061 27.9359 171.498 24.635 171.889 20.9612L172.493 15.188L172.753 12.1192C172.89 10.9096 172.921 9.69025 172.844 8.47531C172.792 7.61763 172.6 6.77424 172.276 5.97829C171.888 5.07986 171.287 4.28908 170.525 3.67372C169.437 2.85031 168.168 2.2979 166.823 2.0622C164.97 1.61669 163.087 1.30833 161.188 1.13958C158.014 0.826636 154.814 0.910796 151.66 1.39011C146.296 2.24625 143.322 3.91963 143.52 4.62217C143.718 5.32471 146.941 5.16664 151.984 5.34207C154.929 5.46477 157.862 5.77716 160.766 6.2773C161.898 6.47978 163.067 6.7314 164.273 7.03218L163.902 7.42332C161.43 10.037 157.637 14.5995 150.881 21.389C149.217 23.0903 147.301 24.8678 145.223 26.855C143.145 28.8422 140.807 30.8693 138.151 32.9304C132.126 37.8964 125.587 42.205 118.647 45.783C117.666 46.2745 116.652 46.7925 115.617 47.2965C114.581 47.8004 113.503 48.1992 112.437 48.6526C111.37 49.106 110.276 49.6042 109.134 49.9789L105.691 51.1073C104.514 51.5244 103.312 51.8683 102.092 52.137L98.4463 52.9663C97.2069 53.2482 95.9343 53.3843 94.6559 53.5793L92.8043 53.8663L90.9194 54.0076C89.598 54.0973 88.2806 54.2053 86.9592 54.2951C85.6744 54.336 84.3884 54.3086 83.1066 54.213C80.9995 54.0708 78.9201 53.6547 76.9206 52.9749C78.8678 49.9057 80.646 46.6832 82.4117 43.406C84.0036 40.4625 85.2233 37.3323 86.0428 34.0878C86.469 32.2708 86.6506 30.405 86.5827 28.5399C86.5022 26.5434 86.0552 24.5788 85.2642 22.7439C84.4904 20.8765 83.3554 19.1803 81.9242 17.7528C80.4145 16.2576 78.4889 15.2526 76.3991 14.8691C74.3292 14.5375 72.2078 14.8988 70.3644 15.8968C68.6262 16.8992 67.1701 18.3251 66.1315 20.0419L65.8026 19.9442ZM75.8626 20.6845C76.9388 20.9561 77.9303 21.4918 78.7472 22.2432C79.5642 22.9946 80.1808 23.9379 80.5412 24.9877C81.0249 26.1462 81.3054 27.3793 81.3705 28.633C81.4262 29.9829 81.3152 31.3344 81.0399 32.6571C80.3621 35.4833 79.3273 38.2116 77.9604 40.7764C76.2726 44.2275 74.5011 47.5635 72.5522 50.7098C71.6114 49.9323 70.7999 49.0105 70.1481 47.9787C68.8678 45.6383 68.1501 43.0318 68.0521 40.3659C67.9515 38.9127 67.9296 37.3841 67.9583 35.8248C67.9686 34.3509 68.0756 32.8793 68.2789 31.4195C68.5863 28.6662 69.4401 26.002 70.7902 23.5829C71.2104 22.6431 71.9162 21.8595 72.8071 21.3437C73.6981 20.8278 74.7289 20.6059 75.7532 20.7094" fill="url(#paint0_linear_1_457)"/>
<defs>
<linearGradient id="paint0_linear_1_457" x1="95.0147" y1="62.1679" x2="83.7156" y2="12.4994" gradientUnits="userSpaceOnUse">
<stop stop-color="#0051D2"/>
<stop offset="1" stop-color="#297BFE"/>
</linearGradient>
</defs>
</svg>
